<svg xmlns="http://www.w3.org/2000/svg" xmlns:xlink="http://www.w3.org/1999/xlink" version="1.1" style="enable-background:new 0 0 61.858 61.858;" xml:space="preserve" width="61.858001708984375" height="61.858001708984375"><rect id="backgroundrect" width="100%" height="100%" x="0" y="0" fill="none" stroke="none"/>
















<g class="currentLayer" style=""><title>Layer 1</title><g id="svg_1" class="selected" fill-opacity="1" fill="#ffff00">
	<g id="svg_2" fill="#ffff00">
		<path style="" d="M50.097,0.014c-9.917,0.874-17.235,5.824-21.501,12.98c-2.859,3.584-8.57,14.526-10.647,20.254    c-3.766,7.123-7.05,15.598-9.62,23.238c-1.571,4.672,5.483,7.72,7.063,3.027c1.922-5.716,4.244-11.896,6.868-17.631    c2.604,5.828,5.25,11.637,8.091,17.354c2.202,4.438,8.828,0.546,6.634-3.877c-2.925-5.885-5.642-11.864-8.319-17.863    c0.034-0.116,0.077-0.229,0.113-0.344c0.446,0.127,0.938,0.166,1.48,0.063c4.096-0.769,8.192-1.536,12.291-2.305    c1.751-0.329,2.422-2.245,2.146-3.779c-0.828-4.597-3.447-7.795-6.707-10.821c-0.484-1.646-2.098-3.102-3.889-4.549    c3.631-5.87,9.559-9.056,17.275-9.736C55.313,5.68,54.001-0.329,50.097,0.014z M35.173,26.143    c1.013,1.054,1.875,2.163,2.526,3.447c-1.982,0.372-3.965,0.743-5.947,1.115C32.752,29.095,33.903,27.575,35.173,26.143z" id="svg_3" fill="#ffff00"/>
		<circle style="" cx="43.65299987792969" cy="15.635000228881836" r="5.275000095367432" id="svg_4" fill="#ffff00"/>
	</g>
</g><g id="svg_5">
</g><g id="svg_6">
</g><g id="svg_7">
</g><g id="svg_8">
</g><g id="svg_9">
</g><g id="svg_10">
</g><g id="svg_11">
</g><g id="svg_12">
</g><g id="svg_13">
</g><g id="svg_14">
</g><g id="svg_15">
</g><g id="svg_16">
</g><g id="svg_17">
</g><g id="svg_18">
</g><g id="svg_19">
</g></g></svg>